<svg width="400" height="400" xmlns="http://www.w3.org/2000/svg">

 <g>
  <title>background</title>
  <rect fill="none" id="canvas_background" height="402" width="402" y="-1" x="-1"/>
 </g>
 <g>
  <title>Layer 1</title>
  <path fill-rule="evenodd" fill="#000000" d="m93.050538,51.740013c-5.699,0.546 -8.203,2.04 -14.687,8.765c-71.399,74.057 -61.901,193.25 20.278,254.472c77.641,57.842 187.948,39.066 242.18,-41.222c40.144,-59.432 38.16,-139.435 -4.872,-196.481c-12.747,-16.897 -20.974,-24.418 -27.899,-25.505c-2.921,-0.458 -210.224,-0.486 -215,-0.029m209.127,25.954c3.007,1.213 6.488,4.455 11.446,10.661c54.744,68.521 36.542,169.565 -38.751,215.112c-23.151,14.005 -46.793,20.459 -75.022,20.478c-14.282,0.01 -16.411,-0.166 -27,-2.234c-91.658,-17.906 -143.12,-115.153 -106.189,-200.662c7.538,-17.452 23.347,-39.82 30.326,-42.907c3.332,-1.474 5.229,-1.5 104.463,-1.443l98.4,0.056l2.327,0.939m-193.927,18.469c-6.131,1.247 -13.059,9.717 -21.098,25.792c-37.239,74.467 6.078,164.263 87.098,180.555c95.662,19.236 175.436,-69.625 145.992,-162.623c-5.954,-18.805 -19.167,-40.417 -26.392,-43.17c-2.142,-0.816 -181.677,-1.352 -185.6,-0.554m62.602,21.02c10.665,2.425 16.709,14.914 11.914,24.617c-5.693,11.518 -20.178,13.882 -28.917,4.72c-12.018,-12.6 -0.068,-33.22 17.003,-29.337m65.614,-0.225c13.421,2.545 19.195,19.09 10.167,29.132c-10.559,11.743 -29.807,5.297 -30.878,-10.342c-0.789,-11.505 9.57,-20.903 20.711,-18.79m-97.38,50.399c16.705,4.236 24.467,23.604 15.03,37.501c-13.016,19.167 -42.109,12.353 -45.252,-10.599c-2.256,-16.476 14.061,-31 30.222,-26.902m68.535,0.534c16.805,5.844 22.544,25.861 11.285,39.364c-12.991,15.579 -38.872,9.123 -43.108,-10.754c-3.897,-18.288 14.345,-34.688 31.823,-28.61m63.778,-0.74c13.634,2.889 22.377,16.437 19.228,29.798c-4.465,18.945 -28.369,25.579 -41.777,11.594c-16.637,-17.354 -0.843,-46.348 22.549,-41.392m-99.171,58.198c18.089,4.627 24.833,26.586 12.389,40.337c-12.855,14.205 -35.616,9.509 -41.871,-8.639c-6.247,-18.123 10.818,-36.471 29.482,-31.698m66.822,-0.195c13.749,2.874 22.67,17.975 18.433,31.201c-5.887,18.373 -27.612,23.646 -41.241,10.01c-17.128,-17.135 -1.044,-46.197 22.808,-41.211" id="path1"/>
 </g>
</svg>