<svg width="510" height="510" xmlns="http://www.w3.org/2000/svg">

 <g>
  <title>background</title>
  <rect fill="none" id="canvas_background" height="512" width="512" y="-1" x="-1"/>
 </g>
 <g>
  <title>Layer 1</title>
  <path fill-rule="evenodd" fill="#000000" d="m223.598109,5.968645c-46.901,4.832 -82.491,38.856 -86.607,82.794c-0.764,8.156 -0.297,332.397 0.486,337.2c5.528,33.927 29.417,61.83 62.721,73.26c5.163,1.772 10.336,2.993 17.452,4.119l6.452,1.021l29.548,-0.013c35.175,-0.017 40.771,-0.429 52.148,-3.846c35.906,-10.783 60.237,-38.145 66.432,-74.703l1.159,-6.838l0.004,-164.029l0.005,-164.029l-1.004,-5.924c-7.465,-44.066 -42.619,-76.146 -86.596,-79.022c-6.636,-0.434 -57.97,-0.426 -62.2,0.01m68,10.746c32.379,4.817 60.407,29.592 68.602,60.642c2.854,10.81 2.598,-6.628 2.598,177.006l0,165l-0.884,5.013c-6.567,37.221 -36.608,65.565 -73.431,69.282c-9.24,0.933 -64.094,0.608 -70.485,-0.417c-26.023,-4.174 -48.435,-19.836 -60.808,-42.492c-4.872,-8.922 -7.665,-16.82 -9.059,-25.617l-0.914,-5.769l-0.116,-163.4l-0.116,-163.4l0.984,-6.616c5.43,-36.537 37.102,-66.214 74.229,-69.556c5.883,-0.529 65.534,-0.251 69.4,0.324m-46,76.886c-41.159,5.83 -61.949,53.898 -37.311,86.261c27.063,35.549 85.112,28.091 100.459,-12.906c14.916,-39.845 -19.281,-79.57 -63.148,-73.355" id="path1"/>
 </g>
</svg>